<svg xmlns="http://www.w3.org/2000/svg" viewBox="0 0 1000 640" role="img" aria-label="Original stylized tactical map">
  <defs>
    <linearGradient id="bg" x1="0" x2="1" y1="0" y2="1">
      <stop offset="0" stop-color="#18212a"/>
      <stop offset="0.5" stop-color="#121920"/>
      <stop offset="1" stop-color="#1a232c"/>
    </linearGradient>
    <pattern id="grid" width="48" height="48" patternUnits="userSpaceOnUse">
      <path d="M48 0H0v48" fill="none" stroke="#2a3641" stroke-width="1" opacity="0.28"/>
    </pattern>
    <filter id="softShadow" x="-30%" y="-30%" width="160%" height="160%">
      <feDropShadow dx="0" dy="18" stdDeviation="18" flood-color="#000" flood-opacity="0.35"/>
    </filter>
  </defs>
  <rect width="1000" height="640" fill="url(#bg)"/>
  <rect width="1000" height="640" fill="url(#grid)"/>
  <g filter="url(#softShadow)">
    <path d="M79 98h263l52 68h195l67-68h260v160l-83 46v142l82 54v74H634l-63-61H397l-58 61H80V412l94-58V229L79 168Z" fill="#222d36" stroke="#596673" stroke-width="4"/>
    <path d="M176 176h173l42 58h223l55-58h161v73l-85 50v198H643l-51-53H374l-45 53H175V394l86-50V249l-85-49Z" fill="#151e26" stroke="#384653" stroke-width="3"/>
    <path d="M385 237h234v74H385Z" fill="#263440" stroke="#6b7883" stroke-width="3"/>
    <path d="M384 350h232v88H384Z" fill="#263440" stroke="#6b7883" stroke-width="3"/>
    <path d="M217 248h126v94H217Z" fill="#1e2a33" stroke="#55636f" stroke-width="3"/>
    <path d="M661 249h126v94H661Z" fill="#1e2a33" stroke="#55636f" stroke-width="3"/>
    <path d="M227 398h113v67H227Z" fill="#202c35" stroke="#4b5965" stroke-width="3"/>
    <path d="M665 397h113v67H665Z" fill="#202c35" stroke="#4b5965" stroke-width="3"/>
    <path d="M432 153h139l25 38H407Z" fill="#2b3944" stroke="#6a7782" stroke-width="3"/>
    <path d="M423 489h154l39 39H386Z" fill="#2b3944" stroke="#6a7782" stroke-width="3"/>
  </g>
  <g opacity="0.9" font-family="Arial, sans-serif" font-weight="700" letter-spacing="0">
    <text x="253" y="304" fill="#43d9bd" font-size="28">B</text>
    <text x="717" y="304" fill="#ffb454" font-size="28">A</text>
    <text x="480" y="296" fill="#93a1ad" font-size="18">MID</text>
    <text x="455" y="403" fill="#93a1ad" font-size="18">COURT</text>
    <text x="694" y="437" fill="#93a1ad" font-size="15">MARKET</text>
    <text x="245" y="438" fill="#93a1ad" font-size="15">LANE</text>
  </g>
  <g opacity="0.72" fill="none" stroke-linecap="round">
    <path d="M715 304h92" stroke="#ffb454" stroke-width="4"/>
    <path d="M259 304h-92" stroke="#43d9bd" stroke-width="4"/>
    <path d="M505 237v-82" stroke="#6aa6ff" stroke-width="4"/>
    <path d="M501 438v80" stroke="#ff657a" stroke-width="4"/>
  </g>
</svg>
